# Blender v2.79 (sub 0) OBJ File: ''
# www.blender.org
mtllib 2by1Plate_Stud.mtl
o Part.002
v -7.960000 0.499999 3.960000
v -7.960000 3.179999 3.960001
v -7.960000 0.500001 -3.960000
v -7.960000 3.180001 -3.960000
v 7.960000 3.180001 -3.960000
v 7.960000 0.500001 -3.960000
v -7.960000 3.180001 -3.960000
v -7.960000 0.500001 -3.960000
v 7.960000 0.500001 -3.960000
v 7.960000 3.180001 -3.960000
v 7.960000 0.499999 3.960000
v 7.960000 3.179999 3.960001
v 7.960000 0.499999 3.960000
v 7.960000 3.179999 3.960001
v -7.960000 0.499999 3.960000
v -7.960000 3.179999 3.960001
v -7.960000 3.179999 3.960001
v 7.960000 3.179999 3.960001
v -7.960000 3.180001 -3.960000
v 7.960000 3.180001 -3.960000
v -7.960000 0.500001 -3.960000
v -7.600000 0.500001 -3.600000
v -7.960000 0.499999 3.960000
v -7.600000 0.499999 3.600000
v 7.960000 0.500001 -3.960000
v 7.600000 0.500001 -3.600000
v 7.600000 0.499999 3.600000
v 7.960000 0.499999 3.960000
v -7.600000 0.499999 3.600000
v -7.600000 0.020000 3.600000
v 7.600000 0.499999 3.600000
v 7.600000 0.020000 3.600000
v 7.600000 0.499999 3.600000
v 7.600000 0.020000 3.600000
v 7.600000 0.500001 -3.600000
v 7.600000 0.020000 -3.600000
v 7.600000 0.500001 -3.600000
v 7.600000 0.020000 -3.600000
v -7.600000 0.500001 -3.600000
v -7.600000 0.020000 -3.600000
v -7.600000 0.500001 -3.600000
v -7.600000 0.020000 -3.600000
v -7.600000 0.499999 3.600000
v -7.600000 0.020000 3.600000
v -7.600000 0.020000 -3.600000
v -6.400000 0.020000 -2.400000
v -7.600000 0.020000 3.600000
v -6.400000 0.020000 2.400000
v 7.600000 0.020000 -3.600000
v 6.400000 0.020000 -2.400000
v 7.600000 0.020000 3.600000
v 6.400000 0.020000 2.400000
v -6.400000 0.020000 2.400000
v -6.400000 2.000000 2.400000
v 6.400000 0.020000 2.400000
v 6.400000 2.000000 2.400000
v 6.400000 0.020000 2.400000
v 6.400000 2.000000 2.400000
v 6.400000 0.020000 -2.400000
v 6.400000 2.000000 -2.400000
v 6.400000 0.020000 -2.400000
v 6.400000 2.000000 -2.400000
v -6.400000 0.020000 -2.400000
v -6.400000 2.000000 -2.400000
v -6.400000 0.020000 -2.400000
v -6.400000 2.000000 -2.400000
v -6.400000 0.020000 2.400000
v -6.400000 2.000000 2.400000
v 6.400000 2.000000 -2.400000
v 6.400000 2.000000 2.400000
v -6.400000 2.000000 -2.400000
v -6.400000 2.000000 2.400000
v -1.600000 5.000000 0.000000
v -1.600000 3.180000 0.000000
v -1.478210 5.000000 -0.612293
v -1.478210 3.180000 -0.612293
v 0.918439 5.000000 -2.217309
v 1.697060 5.000000 -1.697059
v 0.918439 3.180001 -2.217309
v 1.697060 3.180000 -1.697060
v 1.697060 5.000000 1.697061
v 0.918440 5.000000 2.217311
v 1.697060 3.180000 1.697060
v 0.918440 3.180000 2.217310
v -2.217310 5.000000 0.918441
v -2.400000 5.000000 0.000001
v -2.217310 3.180000 0.918441
v -2.400000 3.180000 0.000000
v 0.612293 5.000000 -1.478209
v 0.612293 3.180000 -1.478209
v 1.131370 5.000000 -1.131369
v 1.131370 3.180000 -1.131369
v 1.131370 5.000000 1.131371
v 1.131370 3.180000 1.131370
v 0.612293 5.000000 1.478211
v 0.612293 3.180000 1.478210
v -1.478210 5.000000 0.612294
v -1.478210 3.180000 0.612294
v 0.000000 5.000000 -2.399999
v 0.000000 3.180001 -2.400000
v 2.217310 5.000000 0.918441
v 2.217310 3.180000 0.918441
v -1.697060 5.000000 1.697061
v -1.697060 3.180000 1.697060
v -0.918440 5.000000 -2.217309
v -0.918440 3.180001 -2.217309
v 0.000000 5.000000 -1.599999
v 0.000000 3.180000 -1.600000
v 1.478210 5.000000 0.612294
v 1.478210 3.180000 0.612294
v -1.131370 5.000000 1.131371
v -1.131370 3.180000 1.131370
v -0.612294 5.000000 -1.478209
v -0.612294 3.180000 -1.478209
v 2.400000 5.000000 0.000000
v 2.400000 3.180000 0.000000
v -0.918440 5.000000 2.217311
v -0.918440 3.180000 2.217310
v -1.697060 5.000000 -1.697059
v -1.697060 3.180000 -1.697060
v 1.600000 5.000000 0.000000
v 1.600000 3.180000 0.000000
v -0.612294 5.000000 1.478211
v -0.612294 3.180000 1.478210
v -1.131370 5.000000 -1.131369
v -1.131370 3.180000 -1.131369
v 2.217310 5.000000 -0.918440
v 2.217310 3.180000 -0.918440
v -0.000000 5.000000 2.400001
v -0.000000 3.180000 2.400001
v -2.217310 5.000000 -0.918440
v -2.217310 3.180000 -0.918440
v 1.478210 5.000000 -0.612293
v 1.478210 3.180000 -0.612293
v -0.000000 5.000000 1.600001
v -0.000000 3.180000 1.600001
v -0.612294 2.000000 1.478210
v -1.131370 2.000000 1.131370
v -0.612294 0.020000 1.478210
v -1.131370 0.020000 1.131370
v -0.612294 5.000000 -1.478209
v -0.918440 5.000000 -2.217309
v -1.131370 5.000000 -1.131369
v -1.697060 5.000000 -1.697059
v -1.478210 2.000000 0.612294
v -1.600000 2.000000 0.000000
v -1.478210 0.020000 0.612294
v -1.600000 0.020000 0.000000
v 1.697060 5.000000 -1.697059
v 0.918439 5.000000 -2.217309
v 1.131370 5.000000 -1.131369
v 0.612293 5.000000 -1.478209
v 0.000000 5.000000 -2.399999
v 0.000000 5.000000 -1.599999
v -0.000000 2.000000 1.600000
v -0.000000 0.020000 1.600000
v 1.600000 2.000000 0.000000
v 1.478210 2.000000 0.612294
v 1.600000 0.020000 0.000000
v 1.478210 0.020000 0.612294
v -1.478210 2.000000 -0.612293
v -1.478210 0.020000 -0.612293
v -1.131370 2.000000 -1.131370
v -0.612294 2.000000 -1.478210
v -1.131370 0.020000 -1.131370
v -0.612294 0.020000 -1.478210
v 2.217310 5.000000 -0.918440
v 1.478210 5.000000 -0.612293
v -2.217310 5.000000 -0.918440
v -1.478210 5.000000 -0.612293
v 1.600000 5.000000 0.000000
v 2.400000 5.000000 0.000000
v 1.478210 5.000000 0.612294
v 2.217310 5.000000 0.918441
v 1.131370 2.000000 1.131370
v 1.131370 0.020000 1.131370
v 1.131370 5.000000 1.131371
v 1.697060 5.000000 1.697061
v 0.612293 2.000000 -1.478210
v 1.131370 2.000000 -1.131370
v 0.612293 0.020000 -1.478210
v 1.131370 0.020000 -1.131370
v -2.217310 5.000000 0.918441
v -1.478210 5.000000 0.612294
v -2.400000 5.000000 0.000001
v -1.600000 5.000000 0.000000
v -1.697060 5.000000 1.697061
v -1.131370 5.000000 1.131371
v 0.612293 2.000000 1.478210
v 0.612293 0.020000 1.478210
v -0.612294 5.000000 1.478211
v -0.918440 5.000000 2.217311
v -0.000000 5.000000 1.600001
v -0.000000 5.000000 2.400001
v 1.478210 2.000000 -0.612294
v 1.478210 0.020000 -0.612294
v 0.918440 5.000000 2.217311
v 0.612293 5.000000 1.478211
v 0.000000 2.000000 -1.600000
v 0.000000 0.020000 -1.600000
v -1.600000 0.020000 0.000000
v -1.478210 0.020000 -0.612293
v -0.000000 0.020000 0.000000
v -0.612294 0.020000 1.478210
v -1.131370 0.020000 1.131370
v 1.131370 0.020000 1.131370
v 0.612293 0.020000 1.478210
v 1.131370 0.020000 -1.131370
v 1.478210 0.020000 -0.612294
v 0.612293 0.020000 -1.478210
v 0.000000 0.020000 -1.600000
v -0.612294 0.020000 -1.478210
v -1.131370 0.020000 -1.131370
v -0.000000 0.020000 1.600000
v 1.600000 0.020000 0.000000
v -1.478210 0.020000 0.612294
v 1.478210 0.020000 0.612294
vn -1.0000 0.0000 0.0000
vn 0.0000 0.0000 -1.0000
vn 1.0000 0.0000 0.0000
vn 0.0000 0.0000 1.0000
vn 0.0000 1.0000 0.0000
vn 0.0000 -1.0000 0.0000
vn 0.9239 0.0000 0.3827
vn 0.3827 0.0000 -0.9239
vn 0.7071 0.0000 -0.7071
vn 0.7071 0.0000 0.7071
vn 0.3827 0.0000 0.9239
vn -0.9239 0.0000 0.3827
vn -0.3827 0.0000 0.9239
vn -0.7071 0.0000 0.7071
vn -0.7071 0.0000 -0.7071
vn -0.3827 0.0000 -0.9239
vn 0.9239 0.0000 -0.3827
vn -0.9239 0.0000 -0.3827
usemtl Color_1
s 1
f 1//1 2//1 3//1
f 2//1 4//1 3//1
f 5//2 6//2 7//2
f 6//2 8//2 7//2
f 9//3 10//3 11//3
f 10//3 12//3 11//3
f 13//4 14//4 15//4
f 14//4 16//4 15//4
f 17//5 18//5 19//5
f 18//5 20//5 19//5
f 21//6 22//6 23//6
f 22//6 24//6 23//6
f 25//6 26//6 21//6
f 26//6 22//6 21//6
f 26//6 25//6 27//6
f 25//6 28//6 27//6
f 23//6 24//6 28//6
f 24//6 27//6 28//6
f 29//4 30//4 31//4
f 30//4 32//4 31//4
f 33//3 34//3 35//3
f 34//3 36//3 35//3
f 37//2 38//2 39//2
f 38//2 40//2 39//2
f 41//1 42//1 43//1
f 42//1 44//1 43//1
f 45//6 46//6 47//6
f 46//6 48//6 47//6
f 49//6 50//6 45//6
f 50//6 46//6 45//6
f 51//6 52//6 49//6
f 52//6 50//6 49//6
f 47//6 48//6 51//6
f 48//6 52//6 51//6
f 53//2 54//2 55//2
f 54//2 56//2 55//2
f 57//1 58//1 59//1
f 58//1 60//1 59//1
f 61//4 62//4 63//4
f 62//4 64//4 63//4
f 65//3 66//3 67//3
f 66//3 68//3 67//3
f 69//6 70//6 71//6
f 70//6 72//6 71//6
f 73//3 74//3 75//7
f 74//3 76//7 75//7
f 77//8 78//9 79//8
f 78//9 80//9 79//8
f 81//10 82//11 83//10
f 82//11 84//11 83//10
f 85//12 86//1 87//12
f 86//1 88//1 87//12
f 89//13 90//13 91//14
f 90//13 92//14 91//14
f 93//15 94//15 95//16
f 94//15 96//16 95//16
f 97//17 98//17 73//3
f 98//17 74//3 73//3
f 77//8 79//8 99//2
f 79//8 100//2 99//2
f 101//7 81//10 102//7
f 81//10 83//10 102//7
f 103//14 85//12 104//14
f 85//12 87//12 104//14
f 105//16 99//2 106//16
f 99//2 100//2 106//16
f 89//13 107//4 90//13
f 107//4 108//4 90//13
f 109//18 110//18 93//15
f 110//18 94//15 93//15
f 111//9 112//9 97//17
f 112//9 98//17 97//17
f 113//11 114//11 107//4
f 114//11 108//4 107//4
f 115//3 101//7 116//3
f 101//7 102//7 116//3
f 117//13 103//14 118//13
f 103//14 104//14 118//13
f 119//15 105//16 120//15
f 105//16 106//16 120//15
f 121//1 122//1 109//18
f 122//1 110//18 109//18
f 123//8 124//8 111//9
f 124//8 112//9 111//9
f 125//10 126//10 113//11
f 126//10 114//11 113//11
f 127//17 115//3 128//17
f 115//3 116//3 128//17
f 129//4 117//13 130//4
f 117//13 118//13 130//4
f 131//18 119//15 132//18
f 119//15 120//15 132//18
f 133//12 134//12 121//1
f 134//12 122//1 121//1
f 135//2 136//2 123//8
f 136//2 124//8 123//8
f 75//7 76//7 125//10
f 76//7 126//10 125//10
f 78//9 127//17 80//9
f 127//17 128//17 80//9
f 82//11 129//4 84//11
f 129//4 130//4 84//11
f 86//1 131//18 88//1
f 131//18 132//18 88//1
f 91//14 92//14 133//12
f 92//14 134//12 133//12
f 95//16 96//16 135//2
f 96//16 136//2 135//2
f 137//13 138//14 139//13
f 138//14 140//14 139//13
f 141//5 142//5 143//5
f 142//5 144//5 143//5
f 145//12 146//1 147//12
f 146//1 148//1 147//12
f 149//5 150//5 151//5
f 150//5 152//5 151//5
f 153//5 154//5 150//5
f 154//5 152//5 150//5
f 155//4 137//13 156//4
f 137//13 139//13 156//4
f 157//3 158//7 159//3
f 158//7 160//7 159//3
f 146//1 161//18 148//1
f 161//18 162//18 148//1
f 163//15 164//16 165//15
f 164//16 166//16 165//15
f 149//5 151//5 167//5
f 151//5 168//5 167//5
f 169//5 170//5 144//5
f 170//5 143//5 144//5
f 171//5 172//5 168//5
f 172//5 167//5 168//5
f 171//5 173//5 172//5
f 173//5 174//5 172//5
f 158//7 175//10 160//7
f 175//10 176//10 160//7
f 138//14 145//12 140//14
f 145//12 147//12 140//14
f 177//5 178//5 173//5
f 178//5 174//5 173//5
f 179//8 180//9 181//8
f 180//9 182//9 181//8
f 183//5 184//5 185//5
f 184//5 186//5 185//5
f 187//5 188//5 183//5
f 188//5 184//5 183//5
f 189//11 155//4 190//11
f 155//4 156//4 190//11
f 191//5 192//5 193//5
f 192//5 194//5 193//5
f 195//17 157//3 196//17
f 157//3 159//3 196//17
f 161//18 163//15 162//18
f 163//15 165//15 162//18
f 191//5 188//5 192//5
f 188//5 187//5 192//5
f 178//5 177//5 197//5
f 177//5 198//5 197//5
f 193//5 194//5 198//5
f 194//5 197//5 198//5
f 179//8 181//8 199//2
f 181//8 200//2 199//2
f 175//10 189//11 176//10
f 189//11 190//11 176//10
f 180//9 195//17 182//9
f 195//17 196//17 182//9
f 164//16 199//2 166//16
f 199//2 200//2 166//16
f 142//5 141//5 153//5
f 141//5 154//5 153//5
f 185//5 186//5 169//5
f 186//5 170//5 169//5
f 201//6 202//6 203//6
f 204//6 205//6 203//6
f 206//6 207//6 203//6
f 208//6 209//6 203//6
f 210//6 203//6 211//6
f 212//6 211//6 203//6
f 202//6 213//6 203//6
f 207//6 214//6 203//6
f 209//6 215//6 203//6
f 210//6 208//6 203//6
f 205//6 216//6 203//6
f 215//6 217//6 203//6
f 216//6 201//6 203//6
f 217//6 206//6 203//6
f 213//6 212//6 203//6
f 214//6 204//6 203//6
