# Blender v2.79 (sub 0) OBJ File: ''
# www.blender.org
mtllib Tile.mtl
o Part.000
v -7.960000 0.499999 7.960000
v -7.960000 3.180000 7.960001
v -7.960000 0.500001 -7.960000
v -7.960000 3.180002 -7.960000
v 7.960000 3.180002 -7.960000
v 7.960000 0.500001 -7.960000
v -7.960000 3.180002 -7.960000
v -7.960000 0.500001 -7.960000
v 7.960000 0.500001 -7.960000
v 7.960000 3.180002 -7.960000
v 7.960000 0.499999 7.960000
v 7.960000 3.180000 7.960001
v 7.960000 0.499999 7.960000
v 7.960000 3.180000 7.960001
v -7.960000 0.499999 7.960000
v -7.960000 3.180000 7.960001
v -7.960000 3.180000 7.960001
v 7.960000 3.180000 7.960001
v -7.960000 3.180002 -7.960000
v 7.960000 3.180002 -7.960000
v -7.960000 0.500001 -7.960000
v -7.599999 0.500001 -7.600000
v -7.960000 0.499999 7.960000
v -7.600000 0.499999 7.600000
v 7.960000 0.500001 -7.960000
v 7.600000 0.500001 -7.599999
v 7.600000 0.499999 7.600000
v 7.960000 0.499999 7.960000
v -7.600000 0.499999 7.600000
v -7.600000 0.019999 7.600000
v 7.600000 0.499999 7.600000
v 7.600000 0.019999 7.600000
v 7.600000 0.499999 7.600000
v 7.600000 0.019999 7.600000
v 7.600000 0.500001 -7.599999
v 7.600000 0.020001 -7.599999
v 7.600000 0.500001 -7.599999
v 7.600000 0.020001 -7.599999
v -7.599999 0.500001 -7.600000
v -7.599999 0.020001 -7.600000
v -7.599999 0.500001 -7.600000
v -7.599999 0.020001 -7.600000
v -7.600000 0.499999 7.600000
v -7.600000 0.019999 7.600000
v -7.599999 0.020001 -7.600000
v -6.400000 0.020001 -6.400001
v -7.600000 0.019999 7.600000
v -6.400001 0.019999 6.400000
v 7.600000 0.020001 -7.599999
v 6.400000 0.020001 -6.400000
v 7.600000 0.019999 7.600000
v 6.400000 0.019999 6.400000
v -6.400001 0.019999 6.400000
v -6.400001 2.199999 6.400001
v 6.400000 0.019999 6.400000
v 6.400000 2.199999 6.400001
v 6.400000 0.019999 6.400000
v 6.400000 2.199999 6.400001
v 6.400000 0.020001 -6.400000
v 6.400000 2.200001 -6.400000
v 6.400000 0.020001 -6.400000
v 6.400000 2.200001 -6.400000
v -6.400000 0.020001 -6.400001
v -6.400000 2.200001 -6.400001
v -6.400000 0.020001 -6.400001
v -6.400000 2.200001 -6.400001
v -6.400001 0.019999 6.400000
v -6.400001 2.199999 6.400001
v 6.400000 2.200001 -6.400000
v 6.400000 2.199999 6.400001
v -6.400000 2.200001 -6.400001
v -6.400001 2.199999 6.400001
v 0.000000 3.180001 -2.400000
v -0.918439 3.180001 -2.217312
v 0.000000 5.000000 -2.399999
v -0.918439 5.000000 -2.217311
v -1.697056 3.180001 -1.697057
v -1.697056 5.000000 -1.697056
v -2.217311 3.180001 -0.918440
v -2.217311 5.000000 -0.918440
v -2.400000 3.180001 0.000001
v -2.400000 5.000000 0.000001
v -2.217311 3.180001 0.918442
v -2.217311 5.000000 0.918441
v -1.697056 3.180001 1.697057
v -1.697056 5.000000 1.697058
v -0.918440 3.180001 2.217311
v -0.918440 5.000000 2.217312
v 0.000000 3.180001 2.400001
v 0.000000 5.000000 2.400001
v 0.918440 3.180001 2.217311
v 0.918440 5.000000 2.217312
v 1.697056 3.180001 1.697057
v 1.697056 5.000000 1.697057
v 2.217311 3.180001 0.918441
v 2.217311 5.000000 0.918441
v 2.400000 3.180001 0.000001
v 2.400000 5.000000 0.000001
v 2.217311 3.180001 -0.918439
v 2.217311 5.000000 -0.918440
v 1.697056 3.180001 -1.697056
v 1.697056 5.000000 -1.697056
v 0.918440 3.180001 -2.217310
v 0.918440 5.000000 -2.217310
v 0.918440 5.000000 -2.217310
v 0.000000 5.000000 -2.399999
v 0.612995 5.000000 -1.479899
v 0.000000 5.000000 -1.601831
v 1.697056 5.000000 -1.697056
v 1.132666 5.000000 -1.132665
v 2.217311 5.000000 -0.918440
v 1.479900 5.000000 -0.612994
v 2.400000 5.000000 0.000001
v 1.601832 5.000000 0.000001
v 2.217311 5.000000 0.918441
v 1.479900 5.000000 0.612995
v 1.697056 5.000000 1.697057
v 1.132666 5.000000 1.132667
v 0.918440 5.000000 2.217312
v 0.612995 5.000000 1.479900
v 0.000000 5.000000 2.400001
v 0.000000 5.000000 1.601833
v -0.918440 5.000000 2.217312
v -0.612994 5.000000 1.479901
v -1.697056 5.000000 1.697058
v -1.132666 5.000000 1.132667
v -2.217311 5.000000 0.918441
v -1.479899 5.000000 0.612996
v -2.400000 5.000000 0.000001
v -1.601832 5.000000 0.000001
v -2.217311 5.000000 -0.918440
v -1.479899 5.000000 -0.612994
v -1.697056 5.000000 -1.697056
v -1.132666 5.000000 -1.132666
v -0.918439 5.000000 -2.217311
v -0.612994 5.000000 -1.479899
v 0.000000 5.000000 -1.601831
v -0.612994 5.000000 -1.479899
v 0.000000 3.180002 -1.601832
v -0.612994 3.180002 -1.479900
v -1.132666 5.000000 -1.132666
v -1.132666 3.180002 -1.132666
v -1.479899 5.000000 -0.612994
v -1.479899 3.180002 -0.612994
v -1.601832 5.000000 0.000001
v -1.601832 3.180002 0.000001
v -1.479899 5.000000 0.612996
v -1.479899 3.180002 0.612996
v -1.132666 5.000000 1.132667
v -1.132666 3.180002 1.132666
v -0.612994 5.000000 1.479901
v -0.612994 3.180002 1.479900
v 0.000000 5.000000 1.601833
v 0.000000 3.180002 1.601833
v 0.612995 5.000000 1.479900
v 0.612995 3.180002 1.479900
v 1.132666 5.000000 1.132667
v 1.132666 3.180002 1.132666
v 1.479900 5.000000 0.612995
v 1.479900 3.180002 0.612996
v 1.601832 5.000000 0.000001
v 1.601832 3.180002 0.000001
v 1.479900 5.000000 -0.612994
v 1.479900 3.180002 -0.612994
v 1.132666 5.000000 -1.132665
v 1.132666 3.180002 -1.132666
v 0.612995 5.000000 -1.479899
v 0.612995 3.180002 -1.479900
v 0.000000 0.020001 -3.250000
v -1.243720 0.020000 -3.002609
v 0.000000 2.200001 -3.250000
v -1.243720 2.200001 -3.002609
v -2.298096 0.020000 -2.298098
v -2.298096 2.200001 -2.298098
v -3.002608 0.020000 -1.243722
v -3.002608 2.200000 -1.243722
v -3.250000 0.020000 0.000000
v -3.250000 2.200000 0.000000
v -3.002608 0.020000 1.243722
v -3.002608 2.200000 1.243721
v -2.298096 0.020000 2.298098
v -2.298096 2.200000 2.298099
v -1.243720 0.020000 3.002609
v -1.243720 2.200000 3.002609
v 0.000000 0.019999 3.250000
v 0.000000 2.200000 3.250000
v 1.243721 0.020000 3.002608
v 1.243721 2.200000 3.002609
v 2.298097 0.020000 2.298097
v 2.298097 2.200000 2.298097
v 3.002608 0.020000 1.243721
v 3.002608 2.200000 1.243721
v 3.250000 0.020000 0.000000
v 3.250000 2.200000 0.000000
v 3.002608 0.020000 -1.243721
v 3.002608 2.200000 -1.243721
v 2.298097 0.020000 -2.298097
v 2.298097 2.200001 -2.298096
v 1.243721 0.020000 -3.002608
v 1.243721 2.200001 -3.002608
v -1.243720 0.020000 -3.002609
v 0.000000 0.020001 -3.250000
v -0.918501 0.020000 -2.217460
v 0.000000 0.020000 -2.400161
v -2.298096 0.020000 -2.298098
v -1.697169 0.020000 -1.697170
v -3.002608 0.020000 -1.243722
v -2.217459 0.020000 -0.918502
v -3.250000 0.020000 0.000000
v -2.400161 0.020000 0.000000
v -3.002608 0.020000 1.243722
v -2.217459 0.020000 0.918502
v -2.298096 0.020000 2.298098
v -1.697170 0.020000 1.697170
v -1.243720 0.020000 3.002609
v -0.918501 0.020000 2.217460
v 0.000000 0.019999 3.250000
v 0.000000 0.020000 2.400161
v 1.243721 0.020000 3.002608
v 0.918502 0.020000 2.217459
v 2.298097 0.020000 2.298097
v 1.697170 0.020000 1.697170
v 3.002608 0.020000 1.243721
v 2.217459 0.020000 0.918502
v 3.250000 0.020000 0.000000
v 2.400161 0.020000 0.000000
v 3.002608 0.020000 -1.243721
v 2.217459 0.020000 -0.918502
v 2.298097 0.020000 -2.298097
v 1.697170 0.020000 -1.697170
v 1.243721 0.020000 -3.002608
v 0.918502 0.020000 -2.217459
v 0.000000 0.020000 -2.400161
v 0.918502 0.020000 -2.217459
v 0.000000 2.200001 -2.400161
v 0.918502 2.200001 -2.217458
v 1.697170 0.020000 -1.697170
v 1.697170 2.200000 -1.697170
v 2.217459 0.020000 -0.918502
v 2.217459 2.200000 -0.918502
v 2.400161 0.020000 0.000000
v 2.400161 2.200000 0.000000
v 2.217459 0.020000 0.918502
v 2.217459 2.200000 0.918502
v 1.697170 0.020000 1.697170
v 1.697170 2.200000 1.697170
v 0.918502 0.020000 2.217459
v 0.918502 2.200000 2.217459
v 0.000000 0.020000 2.400161
v 0.000000 2.200000 2.400162
v -0.918501 0.020000 2.217460
v -0.918501 2.200000 2.217460
v -1.697170 0.020000 1.697170
v -1.697170 2.200000 1.697170
v -2.217459 0.020000 0.918502
v -2.217459 2.200000 0.918502
v -2.400161 0.020000 0.000000
v -2.400161 2.200000 0.000000
v -2.217459 0.020000 -0.918502
v -2.217459 2.200000 -0.918502
v -1.697169 0.020000 -1.697170
v -1.697169 2.200000 -1.697171
v -0.918501 0.020000 -2.217460
v -0.918501 2.200001 -2.217459
vn -1.0000 0.0000 0.0000
vn 0.0000 0.0000 -1.0000
vn 1.0000 0.0000 0.0000
vn 0.0000 0.0000 1.0000
vn 0.0000 1.0000 0.0000
vn 0.0000 -1.0000 0.0000
vn -0.3827 0.0000 -0.9239
vn -0.7071 0.0000 -0.7071
vn -0.9239 0.0000 -0.3827
vn -0.9239 0.0000 0.3827
vn -0.7071 0.0000 0.7071
vn -0.3827 0.0000 0.9239
vn 0.3827 0.0000 0.9239
vn 0.7071 0.0000 0.7071
vn 0.9239 0.0000 0.3827
vn 0.9239 0.0000 -0.3827
vn 0.7071 0.0000 -0.7071
vn 0.3827 0.0000 -0.9239
usemtl Color_37
s 1
f 1//1 2//1 3//1
f 2//1 4//1 3//1
f 5//2 6//2 7//2
f 6//2 8//2 7//2
f 9//3 10//3 11//3
f 10//3 12//3 11//3
f 13//4 14//4 15//4
f 14//4 16//4 15//4
f 17//5 18//5 19//5
f 18//5 20//5 19//5
f 21//6 22//6 23//6
f 22//6 24//6 23//6
f 25//6 26//6 21//6
f 26//6 22//6 21//6
f 26//6 25//6 27//6
f 25//6 28//6 27//6
f 23//6 24//6 28//6
f 24//6 27//6 28//6
f 29//4 30//4 31//4
f 30//4 32//4 31//4
f 33//3 34//3 35//3
f 34//3 36//3 35//3
f 37//2 38//2 39//2
f 38//2 40//2 39//2
f 41//1 42//1 43//1
f 42//1 44//1 43//1
f 45//6 46//6 47//6
f 46//6 48//6 47//6
f 49//6 50//6 45//6
f 50//6 46//6 45//6
f 51//6 52//6 49//6
f 52//6 50//6 49//6
f 47//6 48//6 51//6
f 48//6 52//6 51//6
f 53//2 54//2 55//2
f 54//2 56//2 55//2
f 57//1 58//1 59//1
f 58//1 60//1 59//1
f 61//4 62//4 63//4
f 62//4 64//4 63//4
f 65//3 66//3 67//3
f 66//3 68//3 67//3
f 69//6 70//6 71//6
f 70//6 72//6 71//6
f 73//2 74//7 75//2
f 74//7 76//7 75//2
f 74//7 77//8 76//7
f 77//8 78//8 76//7
f 77//8 79//9 78//8
f 79//9 80//9 78//8
f 79//9 81//1 80//9
f 81//1 82//1 80//9
f 81//1 83//10 82//1
f 83//10 84//10 82//1
f 83//10 85//11 84//10
f 85//11 86//11 84//10
f 85//11 87//12 86//11
f 87//12 88//12 86//11
f 87//12 89//4 88//12
f 89//4 90//4 88//12
f 89//4 91//13 90//4
f 91//13 92//13 90//4
f 91//13 93//14 92//13
f 93//14 94//14 92//13
f 93//14 95//15 94//14
f 95//15 96//15 94//14
f 95//15 97//3 96//15
f 97//3 98//3 96//15
f 97//3 99//16 98//3
f 99//16 100//16 98//3
f 99//16 101//17 100//16
f 101//17 102//17 100//16
f 101//17 103//18 102//17
f 103//18 104//18 102//17
f 103//18 73//2 104//18
f 73//2 75//2 104//18
f 105//5 106//5 107//5
f 106//5 108//5 107//5
f 109//5 105//5 110//5
f 105//5 107//5 110//5
f 111//5 109//5 112//5
f 109//5 110//5 112//5
f 113//5 111//5 114//5
f 111//5 112//5 114//5
f 115//5 113//5 116//5
f 113//5 114//5 116//5
f 117//5 115//5 118//5
f 115//5 116//5 118//5
f 119//5 117//5 120//5
f 117//5 118//5 120//5
f 121//5 119//5 122//5
f 119//5 120//5 122//5
f 123//5 121//5 124//5
f 121//5 122//5 124//5
f 125//5 123//5 126//5
f 123//5 124//5 126//5
f 127//5 125//5 128//5
f 125//5 126//5 128//5
f 129//5 127//5 130//5
f 127//5 128//5 130//5
f 131//5 129//5 132//5
f 129//5 130//5 132//5
f 133//5 131//5 134//5
f 131//5 132//5 134//5
f 135//5 133//5 136//5
f 133//5 134//5 136//5
f 106//5 135//5 108//5
f 135//5 136//5 108//5
f 137//4 138//13 139//4
f 138//13 140//13 139//4
f 138//13 141//14 140//13
f 141//14 142//14 140//13
f 141//14 143//15 142//14
f 143//15 144//15 142//14
f 143//15 145//3 144//15
f 145//3 146//3 144//15
f 145//3 147//16 146//3
f 147//16 148//16 146//3
f 147//16 149//17 148//16
f 149//17 150//17 148//16
f 149//17 151//18 150//17
f 151//18 152//18 150//17
f 151//18 153//2 152//18
f 153//2 154//2 152//18
f 153//2 155//7 154//2
f 155//7 156//7 154//2
f 155//7 157//8 156//7
f 157//8 158//8 156//7
f 157//8 159//9 158//8
f 159//9 160//9 158//8
f 159//9 161//1 160//9
f 161//1 162//1 160//9
f 161//1 163//10 162//1
f 163//10 164//10 162//1
f 163//10 165//11 164//10
f 165//11 166//11 164//10
f 165//11 167//12 166//11
f 167//12 168//12 166//11
f 167//12 137//4 168//12
f 137//4 139//4 168//12
f 169//2 170//7 171//2
f 170//7 172//7 171//2
f 170//7 173//8 172//7
f 173//8 174//8 172//7
f 173//8 175//9 174//8
f 175//9 176//9 174//8
f 175//9 177//1 176//9
f 177//1 178//1 176//9
f 177//1 179//10 178//1
f 179//10 180//10 178//1
f 179//10 181//11 180//10
f 181//11 182//11 180//10
f 181//11 183//12 182//11
f 183//12 184//12 182//11
f 183//12 185//4 184//12
f 185//4 186//4 184//12
f 185//4 187//13 186//4
f 187//13 188//13 186//4
f 187//13 189//14 188//13
f 189//14 190//14 188//13
f 189//14 191//15 190//14
f 191//15 192//15 190//14
f 191//15 193//3 192//15
f 193//3 194//3 192//15
f 193//3 195//16 194//3
f 195//16 196//16 194//3
f 195//16 197//17 196//16
f 197//17 198//17 196//16
f 197//17 199//18 198//17
f 199//18 200//18 198//17
f 199//18 169//2 200//18
f 169//2 171//2 200//18
f 201//6 202//6 203//6
f 202//6 204//6 203//6
f 205//6 201//6 206//6
f 201//6 203//6 206//6
f 207//6 205//6 208//6
f 205//6 206//6 208//6
f 209//6 207//6 210//6
f 207//6 208//6 210//6
f 211//6 209//6 212//6
f 209//6 210//6 212//6
f 213//6 211//6 214//6
f 211//6 212//6 214//6
f 215//6 213//6 216//6
f 213//6 214//6 216//6
f 217//6 215//6 218//6
f 215//6 216//6 218//6
f 219//6 217//6 220//6
f 217//6 218//6 220//6
f 221//6 219//6 222//6
f 219//6 220//6 222//6
f 223//6 221//6 224//6
f 221//6 222//6 224//6
f 225//6 223//6 226//6
f 223//6 224//6 226//6
f 227//6 225//6 228//6
f 225//6 226//6 228//6
f 229//6 227//6 230//6
f 227//6 228//6 230//6
f 231//6 229//6 232//6
f 229//6 230//6 232//6
f 202//6 231//6 204//6
f 231//6 232//6 204//6
f 233//4 234//12 235//4
f 234//12 236//12 235//4
f 234//12 237//11 236//12
f 237//11 238//11 236//12
f 237//11 239//10 238//11
f 239//10 240//10 238//11
f 239//10 241//1 240//10
f 241//1 242//1 240//10
f 241//1 243//9 242//1
f 243//9 244//9 242//1
f 243//9 245//8 244//9
f 245//8 246//8 244//9
f 245//8 247//7 246//8
f 247//7 248//7 246//8
f 247//7 249//2 248//7
f 249//2 250//2 248//7
f 249//2 251//18 250//2
f 251//18 252//18 250//2
f 251//18 253//17 252//18
f 253//17 254//17 252//18
f 253//17 255//16 254//17
f 255//16 256//16 254//17
f 255//16 257//3 256//16
f 257//3 258//3 256//16
f 257//3 259//15 258//3
f 259//15 260//15 258//3
f 259//15 261//14 260//15
f 261//14 262//14 260//15
f 261//14 263//13 262//14
f 263//13 264//13 262//14
f 263//13 233//4 264//13
f 233//4 235//4 264//13
